Coordinates
version=1
nRows=10
nColumns=40
inDegrees=yes

Units are S.I. units (second, meters, Newtons, ...)
Angles are in degrees.

endheader
time	pelvis_tilt	pelvis_list	pelvis_rotation	pelvis_tx	pelvis_ty	pelvis_tz	hip_flexion_r	hip_adduction_r	hip_rotation_r	knee_angle_r	knee_angle_r_beta	ankle_angle_r	subtalar_angle_r	mtp_angle_r	hip_flexion_l	hip_adduction_l	hip_rotation_l	knee_angle_l	knee_angle_l_beta	ankle_angle_l	subtalar_angle_l	mtp_angle_l	lumbar_extension	lumbar_bending	lumbar_rotation	arm_flex_r	arm_add_r	arm_rot_r	elbow_flex_r	pro_sup_r	wrist_flex_r	wrist_dev_r	arm_flex_l	arm_add_l	arm_rot_l	elbow_flex_l	pro_sup_l	wrist_flex_l	wrist_dev_l
     31.18000000	     -7.97456842	     -3.42900900	      1.39315406	      0.77548066	      0.91753165	      0.44632835	     20.91647096	      2.45125879	    -10.57031362	     26.27348954	     26.27348954	     14.11257943	     -3.95589129	      0.08108144	     25.17798351	    -10.99581858	      1.79497588	     59.76674128	     59.76674128	     10.71945252	    -16.44978578	      6.47423813	    -11.59845725	      5.71539648	      1.37449740	     11.49165360	    -21.53438077	    -12.83759772	     44.09978126	     45.93543803	      0.00000000	      0.00000000	      7.53126143	     -8.24557348	     -6.18095181	     28.37373944	     46.21327617	      0.00000000	      0.00000000
     31.18242857	     -7.99224509	     -3.37953139	      1.27510505	      0.77518530	      0.91707695	      0.44670324	     21.08944222	      2.40874944	    -10.47603549	     26.62396093	     26.62396093	     14.23208539	     -3.90662046	     -0.31476729	     25.38940454	    -11.11168386	      1.56993454	     60.08513895	     60.08513895	     10.55285491	    -16.53572008	      5.71837474	    -11.61954399	      5.63503016	      1.52148343	     11.31303498	    -21.66683763	    -12.58677839	     44.94842293	     45.88724028	      0.00000000	      0.00000000	      6.78502051	     -8.34688764	     -5.98564495	     29.40977391	     46.12431279	      0.00000000	      0.00000000
     31.18485714	     -7.99195411	     -3.31285718	      1.33314312	      0.77485581	      0.91712668	      0.44676142	     21.07127858	      2.34720352	    -10.45866362	     26.64029551	     26.64029551	     14.24949122	     -4.03985604	     -0.13291102	     25.61799621	    -10.93007660	      1.76013448	     60.37072066	     60.37072066	     10.84000424	    -16.87310113	      7.02550496	    -11.55771752	      5.58243504	      1.47609800	     12.33014112	    -21.48595717	    -13.04575582	     43.16397368	     45.95816482	      0.00000000	      0.00000000	      7.43320753	     -8.22842903	     -5.70213083	     26.96722425	     46.10143354	      0.00000000	      0.00000000
     31.18728571	     -8.00250861	     -3.25664540	      1.27471447	      0.77455663	      0.91684582	      0.44706395	     21.19234747	      2.28138569	    -10.45739524	     26.90864852	     26.90864852	     14.31586798	     -4.01994571	     -0.38906525	     25.80381175	    -10.97838590	      1.61470991	     60.60014265	     60.60014265	     10.55753745	    -17.15351658	      6.39495231	    -11.58531939	      5.48938875	      1.58567910	     12.17372785	    -21.63742249	    -12.82434338	     44.01641908	     45.91270388	      0.00000000	      0.00000000	      6.80725075	     -8.30184823	     -5.54980320	     27.99445711	     46.03201208	      0.00000000	      0.00000000
     31.18971429	     -7.92381019	     -3.31100539	      1.31219106	      0.77438454	      0.91688356	      0.44726724	     21.03199871	      2.36737625	    -10.47680554	     26.82850937	     26.82850937	     14.27903690	     -4.10387655	     -0.47183163	     25.92183846	    -11.04836943	      1.69237467	     60.82910499	     60.82910499	     10.45705565	    -17.41808151	      6.38697899	    -11.69760180	      5.54769949	      1.66583081	     12.30173521	    -21.74064842	    -12.76991507	     44.38640811	     45.88934602	      0.00000000	      0.00000000	      6.43825403	     -8.30033299	     -5.42786785	     28.40724011	     45.98187539	      0.00000000	      0.00000000
     31.19214286	     -7.91930047	     -3.23350129	      1.30289880	      0.77415829	      0.91681493	      0.44744394	     21.05663369	      2.30773237	    -10.38685444	     26.95586085	     26.95586085	     14.42003373	     -4.17457717	     -0.26593045	     26.11743062	    -11.00510809	      1.64288583	     61.11066486	     61.11066486	     10.85993829	    -17.44935804	      7.53173758	    -11.65833245	      5.49121047	      1.53272531	     13.07387198	    -21.48321588	    -13.18442627	     43.31878627	     45.93581931	      0.00000000	      0.00000000	      6.58288142	     -8.30706582	     -5.25400221	     26.94181845	     45.96317745	      0.00000000	      0.00000000
     31.19457143	     -7.87617696	     -3.22252912	      1.30460443	      0.77390951	      0.91665012	      0.44764375	     21.07079830	      2.28357649	    -10.43787858	     27.13580387	     27.13580387	     14.46551391	     -4.16265925	     -0.45285295	     26.26275833	    -11.04725287	      1.62109817	     61.33020992	     61.33020992	     10.62961346	    -17.70340111	      7.06032135	    -11.72468529	      5.50394024	      1.67149137	     12.99764631	    -21.67134231	    -13.01927352	     44.01644313	     45.89943238	      0.00000000	      0.00000000	      6.06238732	     -8.34584862	     -5.10540852	     27.84739541	     45.90475943	      0.00000000	      0.00000000
     31.19700000	     -7.82243137	     -3.24773136	      1.30844219	      0.77372414	      0.91658408	      0.44787939	     20.99889277	      2.32495134	    -10.44901728	     27.18065660	     27.18065660	     14.52551083	     -4.16505290	     -0.53221645	     26.38367240	    -11.13985687	      1.59670868	     61.52434535	     61.52434535	     10.55586250	    -17.86599781	      6.90350563	    -11.82242155	      5.53125459	      1.77266809	     13.07915096	    -21.75470736	    -12.95466994	     44.36446822	     45.88002134	      0.00000000	      0.00000000	      5.66962959	     -8.37452895	     -4.98087835	     28.22982467	     45.86151234	      0.00000000	      0.00000000
     31.19942857	     -7.76841037	     -3.28181278	      1.28005376	      0.77354835	      0.91656308	      0.44820104	     20.90580804	      2.40987974	    -10.36487190	     27.17037333	     27.17037333	     14.53947558	     -4.17952187	     -0.48846584	     26.51003516	    -11.23214017	      1.59028403	     61.74520738	     61.74520738	     10.67314106	    -18.00419740	      7.26668052	    -11.90968920	      5.54628427	      1.79173254	     13.36646681	    -21.68126314	    -13.00602272	     44.27690954	     45.88059454	      0.00000000	      0.00000000	      5.41832606	     -8.41796379	     -4.79333597	     28.08393999	     45.81725604	      0.00000000	      0.00000000
     31.20185714	     -7.77537984	     -3.25038113	      1.28474117	      0.77332024	      0.91641522	      0.44839763	     20.98022867	      2.38567985	    -10.33128064	     27.37379341	     27.37379341	     14.69942389	     -4.30600028	     -0.20221249	     26.74996244	    -11.24117922	      1.57085808	     62.04016508	     62.04016508	     11.17977105	    -17.95036443	      8.69240175	    -11.79770444	      5.51405418	      1.77487061	     14.06041662	    -21.52371593	    -13.36430503	     43.24756278	     45.93096756	      0.00000000	      0.00000000	      5.59175659	     -8.38039443	     -4.59090946	     26.78401723	     45.80247379	      0.00000000	      0.00000000
